<svg width="56" height="60" viewBox="0 0 56 60" fill="none" xmlns="http://www.w3.org/2000/svg">
<g clip-path="url(#clip0)">
<path d="M27.9759 0L55.9518 14.9932V44.9863L27.9759 59.9795L0 44.9863V14.9932L27.9759 0Z" fill="white"/>
<path d="M50.9566 43.9521L28.9012 55.774V46.5685L42.6434 39.4041L50.9566 43.9521V43.9521ZM52.4675 42.6575V17.9384L44.4 22.3562V38.2466L52.4675 42.6575V42.6575ZM4.90843 43.9521L26.9638 55.774V46.5685L13.2145 39.4041L4.90843 43.9521ZM3.39758 42.6575V17.9384L11.4651 22.3562V38.2466L3.39758 42.6575ZM4.34457 16.3356L26.9638 4.21234V13.1096L12.4699 20.6644L12.3542 20.726L4.34457 16.3356V16.3356ZM51.5205 16.3356L28.9012 4.21234V13.1096L43.3952 20.6575L43.5108 20.7192L51.5205 16.3356Z" fill="#8ED6FB"/>
<path d="M26.9639 44.4726L13.4025 37.4041V23.4109L26.9639 30.8288V44.4726ZM28.9012 44.4726L42.4627 37.4109V23.4109L28.9012 30.8288V44.4726ZM14.3205 21.7945L27.9326 14.7055L41.5446 21.7945L27.9326 29.2397L14.3205 21.7945V21.7945Z" fill="#1C78C0"/>
</g>
<defs>
<clipPath id="clip0">
<rect width="56" height="60" fill="white"/>
</clipPath>
</defs>
</svg>
