<svg width="60" height="60" viewBox="0 0 60 60" fill="none" xmlns="http://www.w3.org/2000/svg">
<path d="M51.6509 34.4537C49.553 34.4693 47.7365 35.1416 46.2129 36.1423C45.6504 34.6569 45.0878 33.3592 44.994 32.3898C44.8886 31.2641 44.7597 30.5761 44.8886 29.2315C45.0175 27.8869 45.6035 25.9794 45.6035 25.823C45.5918 25.6823 45.4746 24.9944 44.2674 24.9787C43.0603 24.9631 42.0172 25.2914 41.9 25.7136C41.7828 26.1357 41.5484 27.1051 41.3961 28.1058C41.1851 29.5755 38.9818 34.782 37.7278 37.5182C37.3176 36.455 36.966 35.5169 36.8957 34.7664C36.7902 33.6407 36.6613 32.9527 36.7902 31.6081C36.9191 30.2634 37.5051 28.3559 37.5051 28.1996C37.4934 28.0589 37.3762 27.3709 36.1691 27.3553C34.9619 27.3397 33.9189 27.668 33.8017 28.0901C33.6845 28.5123 33.5555 29.513 33.2977 30.4823C33.0516 31.4517 30.1217 40.1449 29.3599 42.412C28.9731 43.569 28.6332 44.4915 28.3871 45.1169C28.141 45.7423 28.3754 45.1638 28.352 45.2264C28.141 45.758 28.0238 46.055 28.0238 46.055V46.0707C27.8597 46.4615 27.6839 46.8368 27.6019 46.8368C27.5433 46.8368 27.4261 45.7892 27.6253 44.3508C28.059 41.3332 29.1138 36.627 29.102 36.455C29.102 36.3768 29.3013 35.5482 28.4223 35.126C27.5667 34.7038 27.262 35.4074 27.1917 35.4074C27.1214 35.4074 27.0628 35.6576 27.0628 35.6576C27.0628 35.6576 28.0121 30.3573 25.2462 30.3573C23.5117 30.3573 21.1209 32.8745 19.9372 35.1729C19.1871 35.7201 17.5932 36.8771 15.9056 38.1123C15.261 38.5814 14.593 39.0817 13.9601 39.5351L13.8312 39.3475C10.4793 34.5788 4.27955 31.2016 4.53739 24.7911C4.63115 22.4615 5.24057 16.3168 16.4447 8.87446C25.6213 2.77672 32.9696 4.44969 34.247 8.17087C36.0636 13.4869 30.3209 23.3683 20.781 24.7911C17.1479 25.3384 15.2375 23.4621 14.757 22.7585C14.2531 22.0237 14.1828 21.9924 13.9952 22.1331C13.6905 22.352 13.878 23.0087 13.9952 23.3996C14.2765 24.3846 15.4485 26.1357 17.4409 27.0113C19.1871 27.7774 23.4531 28.1996 28.6098 25.5416C34.3877 22.5553 38.8998 14.2686 37.5754 7.34221C36.2277 0.29072 27.4613 -2.02329 19.1754 1.90115C14.2414 4.24643 8.89714 7.90507 5.05306 12.7051C0.482347 18.3963 -0.244279 23.3683 0.0604347 25.4322C1.12693 32.7964 8.73307 37.5964 11.7802 41.1456C11.6279 41.255 11.4872 41.3645 11.3583 41.4583C9.83473 42.4589 4.03344 46.5084 2.58019 50.7925C0.939418 55.6394 2.83802 59.1261 4.10376 59.5951C8.01816 61.0492 12.0263 58.4381 14.1945 54.1384C16.3509 49.8387 16.0931 44.257 15.0969 41.7084L15.0617 41.6146L16.2572 40.6765C17.0307 40.0667 17.7925 39.5039 18.4605 39.0192C18.0854 40.3794 17.8159 41.9899 17.6753 44.3351C17.5112 47.0869 18.355 50.6518 19.4684 52.059C19.9606 52.6687 20.5466 52.6844 20.9099 52.6844C22.1991 52.6844 22.7851 51.2616 23.4297 49.5573C24.2266 47.4778 24.9298 45.07 24.9298 45.07C24.9298 45.07 24.0508 51.5899 26.4534 51.5899C27.3323 51.5899 28.2113 50.0733 28.6098 49.2915V49.3072C28.6098 49.3072 28.6332 49.2602 28.6801 49.1508C28.7739 48.9632 28.8208 48.8537 28.8208 48.8537V48.8225C29.1724 48.0094 29.9576 46.1488 31.1296 43.0687C32.6414 39.0974 34.0947 34.1253 34.0947 34.1253C34.0947 34.1253 34.2353 35.3449 34.6689 37.3462C34.9268 38.5345 35.4893 39.8322 35.9229 41.0987C35.5713 41.7553 35.3604 42.1306 35.3604 42.1306L35.3721 42.1462C35.0908 42.6465 34.7744 43.1781 34.4462 43.7097C33.2508 45.6172 31.821 47.7905 31.6335 48.4159C31.4108 49.1508 31.4577 49.698 31.8913 50.1358C32.2078 50.4485 32.7703 50.5111 33.368 50.4485C34.4463 50.3547 35.1963 49.9951 35.5713 49.7762C36.1573 49.4948 36.8254 49.0726 37.47 48.4472C38.6419 47.2902 39.3568 45.6485 39.2865 43.4596C39.2514 42.2557 38.9584 41.0674 38.5951 39.9416C38.7005 39.7384 38.806 39.5351 38.9115 39.3162C40.7632 35.7045 42.193 31.7332 42.193 31.7332C42.193 31.7332 42.3337 32.9527 42.7673 34.954C42.99 35.9703 43.4353 37.0804 43.8338 38.1749C42.0993 40.0667 41.0093 42.2557 40.6343 43.6941C39.9428 46.3521 40.4819 47.556 41.5016 47.8374C41.9586 47.9625 42.6149 47.6811 43.1072 47.3997C43.7166 47.1339 44.4549 46.6804 45.1347 46.0081C46.3067 44.8511 47.4318 43.2407 47.3732 41.0674C47.338 40.0667 47.1388 39.0817 46.8692 38.1436C48.3459 37.3306 50.2562 36.8615 52.6822 37.2524C57.8975 38.0654 58.9289 42.412 58.7296 44.2257C58.5304 46.0394 57.4404 47.04 57.0771 47.3528C56.7138 47.6498 56.5966 47.7593 56.6318 47.9782C56.6787 48.3065 56.8427 48.2909 57.1592 48.2283C57.5928 48.1345 59.9016 46.743 59.9954 43.397C60.136 39.0973 57.0771 34.4068 51.6509 34.4537V34.4537ZM11.4286 52.5436C9.70581 55.0609 7.27982 56.0147 6.24848 55.2016C5.1351 54.3417 5.56873 50.6361 7.69001 47.9625C8.97918 46.3365 10.6551 44.8355 11.7568 43.913C12.0029 43.7097 12.3779 43.4127 12.8233 43.0531C12.8936 42.9905 12.9405 42.9593 12.9405 42.9593C13.0225 42.8967 13.1163 42.8185 13.21 42.7404C13.9952 46.5554 13.2452 49.9013 11.4286 52.5436V52.5436ZM24.0274 41.1143C23.4297 43.0687 22.1639 48.0876 21.4021 47.8062C20.7458 47.5716 20.3474 43.7723 21.2732 40.0198C21.742 38.128 22.7382 35.8765 23.3242 35.0009C24.2735 33.5937 25.3048 33.1247 25.5627 33.7032C25.8674 34.4537 24.4024 39.8947 24.0274 41.1143ZM34.4228 47.7436C34.165 47.9156 33.9306 48.0407 33.8251 47.9469C33.7431 47.8843 33.9306 47.6498 33.9306 47.6498C33.9306 47.6498 35.2315 45.7892 35.7471 44.9293C36.0401 44.429 36.3917 43.8505 36.7668 43.1938V43.3814C36.7668 45.6329 35.1494 47.1339 34.4228 47.7436V47.7436ZM42.4391 45.3045C42.2516 45.1169 42.2751 44.5384 42.9079 42.7247C43.154 42.0055 43.7166 40.8016 44.6893 39.6602C44.8065 40.1293 44.8769 40.5827 44.8651 41.0048C44.8534 43.8192 43.3533 44.8667 42.4391 45.3045Z" fill="#CF649A"/>
</svg>
