<svg xmlns="http://www.w3.org/2000/svg" width="23" height="40" viewBox="0 0 23 40"><g transform="translate(-949 -925)"><g transform="translate(949 920)"><g transform="translate(0 5)"><path d="M11.5,8.181a9.561,9.561,0,0,1,9.66,9.546v10.91a9.562,9.562,0,0,1-9.66,9.546,9.561,9.561,0,0,1-9.66-9.546V17.727A9.562,9.562,0,0,1,11.5,8.181M11.5,0a.913.913,0,0,0-.92.908v5.5A11.41,11.41,0,0,0,0,17.727v10.91A11.427,11.427,0,0,0,11.5,40,11.427,11.427,0,0,0,23,28.637V17.727A11.41,11.41,0,0,0,12.42,6.405V.908A.913.913,0,0,0,11.5,0" fill="#333"/></g><path d="M11.5,13.913a.878.878,0,0,1,.885.87V20a.885.885,0,0,1-1.769,0V14.783a.878.878,0,0,1,.885-.87m0-1.739a2.631,2.631,0,0,0-2.654,2.609V20a2.654,2.654,0,0,0,5.308,0V14.783A2.631,2.631,0,0,0,11.5,12.174Z" transform="translate(0 5)" fill="#333"/></g></g></svg>